# xmcd
#
# Track frame offsets:
#	150
#	14335
#	29970
#	49141
#	67275
#
# Disc length: 1092 seconds
#
# Revision: 1
# Processed by: cddbd v1.5.2PL0 Copyright (c) Steve Scherf et al.
# Submitted via: EasyCDDAExtractor 10.0.3.1
#
DISCID=4a044205
DTITLE=Ben Mazue - Terrain d'entente
DYEAR=2007
DGENRE=Pop
TTITLE0=LM
TTITLE1=Les autres
TTITLE2=Nous eumes
TTITLE3=Laisse toi faire
TTITLE4=Hugo
EXTD=YEAR: 2006
EXTT0=
EXTT1=
EXTT2=
EXTT3=
EXTT4=
PLAYORDER=
